<svg width="32" height="32" viewBox="0 0 32 32" fill="none" xmlns="http://www.w3.org/2000/svg">
    <path
        d="M20.105 8.10524C20.105 10.3725 18.267 12.2105 15.9998 12.2105C13.7325 12.2105 11.8945 10.3725 11.8945 8.10524C11.8945 5.83798 13.7325 4 15.9998 4C18.267 4 20.105 5.83798 20.105 8.10524Z"
        fill="currentColor" />
    <path
        d="M11.2105 23.8416C11.2105 26.1088 9.3725 27.9468 7.10524 27.9468C4.83798 27.9468 3 26.1088 3 23.8416C3 21.5743 4.83798 19.7363 7.10524 19.7363C9.3725 19.7363 11.2105 21.5743 11.2105 23.8416Z"
        fill="currentColor" />
    <path
        d="M28.9995 23.8416C28.9995 26.1088 27.1616 27.9468 24.8943 27.9468C22.627 27.9468 20.7891 26.1088 20.7891 23.8416C20.7891 21.5743 22.627 19.7363 24.8943 19.7363C27.1616 19.7363 28.9995 21.5743 28.9995 23.8416Z"
        fill="currentColor" />
    <path fill-rule="evenodd" clip-rule="evenodd"
        d="M13.3043 12.8709C12.9875 12.6913 12.5734 12.7778 12.3941 13.0949L9.52024 18.1795C9.34114 18.4964 9.48452 18.8976 9.80116 19.0771C10.118 19.2567 10.5321 19.1702 10.7114 18.8531L13.5853 13.7685C13.7644 13.4516 13.621 13.0504 13.3043 12.8709ZM7.65273 21.4835C6.88423 22.8432 7.86652 24.5268 9.42834 24.5268H10.4663C10.8633 24.5268 11.2109 24.2391 11.2109 23.8421C11.2109 23.4456 10.8638 23.1584 10.4673 23.1584H10.2035C9.34318 23.1584 8.80211 22.231 9.22542 21.4821L9.35493 21.253C9.55019 20.9075 9.47408 20.4651 9.12896 20.2693C8.78367 20.0733 8.35925 20.2336 8.16389 20.5792L7.65273 21.4835ZM19.4207 23.8421C19.4207 24.2066 19.1412 24.5268 18.7767 24.5268H13.2233C12.8588 24.5268 12.5793 24.2066 12.5793 23.8421C12.5793 23.4781 12.8585 23.1584 13.2225 23.1584H18.7775C19.1415 23.1584 19.4207 23.4781 19.4207 23.8421ZM22.871 20.2693C23.2163 20.0733 23.6407 20.2336 23.8361 20.5792L24.3473 21.4836C25.1158 22.8432 24.1335 24.5268 22.5717 24.5268H21.5337C21.1367 24.5268 20.7891 24.2391 20.7891 23.8421C20.7891 23.4456 21.1362 23.1584 21.5327 23.1584H21.7966C22.6568 23.1584 23.1979 22.231 22.7746 21.4821L22.6451 21.253C22.4498 20.9075 22.5259 20.4652 22.871 20.2693ZM22.1988 19.0771C22.5155 18.8976 22.6589 18.4964 22.4798 18.1795L19.6057 13.0947C19.4265 12.7776 19.0124 12.6911 18.6955 12.8707C18.3789 13.0503 18.2355 13.4514 18.4146 13.7683L21.2886 18.8531C21.4679 19.1702 21.882 19.2567 22.1988 19.0771ZM13.9766 11.6787C14.3219 11.8747 14.7463 11.7144 14.9416 11.3688L15.0549 11.1684C15.4705 10.4332 16.5295 10.4332 16.9451 11.1684L17.0582 11.3686C17.2536 11.7143 17.6781 11.8745 18.0234 11.6785C18.3685 11.4826 18.4445 11.0403 18.2493 10.6948L17.7513 9.81384C16.9812 8.45138 15.0187 8.45138 14.2486 9.81384L13.7506 10.695C13.5553 11.0405 13.6314 11.4829 13.9766 11.6787Z"
        fill="currentColor" />
</svg>