<svg width="30" height="30" viewBox="0 0 30 30" fill="none" xmlns="http://www.w3.org/2000/svg">
<rect width="30" height="30" rx="8" fill="#9CB0F8"/>
<path d="M15.0003 6.66675C12.817 6.66675 11.042 8.44175 11.042 10.6251C11.042 12.7667 12.717 14.5001 14.9003 14.5751C14.967 14.5667 15.0337 14.5667 15.0837 14.5751C15.1003 14.5751 15.1087 14.5751 15.1253 14.5751C15.1337 14.5751 15.1337 14.5751 15.142 14.5751C17.2753 14.5001 18.9503 12.7667 18.9587 10.6251C18.9587 8.44175 17.1837 6.66675 15.0003 6.66675Z" fill="#0C0B0F"/>
<path d="M19.2328 16.7917C16.9078 15.2417 13.1161 15.2417 10.7745 16.7917C9.71615 17.5 9.13281 18.4583 9.13281 19.4833C9.13281 20.5083 9.71615 21.4583 10.7661 22.1583C11.9328 22.9417 13.4661 23.3333 14.9995 23.3333C16.5328 23.3333 18.0661 22.9417 19.2328 22.1583C20.2828 21.45 20.8661 20.5 20.8661 19.4667C20.8578 18.4417 20.2828 17.4917 19.2328 16.7917Z" fill="#0C0B0F"/>
</svg>
