<svg width="16" height="17" viewBox="0 0 16 17" fill="none" xmlns="http://www.w3.org/2000/svg">
<g clip-path="url(#clip0_423_13679)">
<path fill-rule="evenodd" clip-rule="evenodd" d="M7.99801 14.83C11.679 14.83 14.663 11.846 14.663 8.165C14.663 4.48402 11.679 1.5 7.99801 1.5C4.31703 1.5 1.33301 4.48402 1.33301 8.165C1.33301 11.846 4.31703 14.83 7.99801 14.83ZM11.5623 11.172L11.005 11.7293L9.33301 10.0573L9.89034 9.5L11.5623 11.172ZM12.3323 7.77075V8.55893L9.96773 8.55893V7.77075L12.3323 7.77075ZM7.60278 10.1355H8.39096L8.39096 12.5H7.60278L7.60278 10.1355ZM6.32544 9.27905L6.88277 9.83638L5.21078 11.5084L4.65345 10.951L6.32544 9.27905ZM6.02661 8.55942V7.77124H3.66207V8.55942H6.02661ZM7.60278 3.82983H8.39096V6.19438H7.60278V3.82983ZM11.3408 5.37837L10.7834 4.82104L9.11146 6.49303L9.66879 7.05036L11.3408 5.37837ZM6.32573 7.04976L6.88306 6.49243L5.21107 4.82045L4.65374 5.37777L6.32573 7.04976Z" fill="#A4A7FF"/>
</g>
<defs>
<clipPath id="clip0_423_13679">
<rect width="16" height="16" fill="white" transform="translate(0 0.5)"/>
</clipPath>
</defs>
</svg>
