<svg width="60" height="60" viewBox="0 0 60 60" fill="none" xmlns="http://www.w3.org/2000/svg">
<path d="M36.7666 8.06641H42.25V6.5H47.6777C51.1694 6.50012 53.9999 9.33063 54 12.8223V39.0283C54 40.6081 53.4296 42.1278 52.4053 43.3164H47.7334V44.8838H50.8662L44.1748 51.5752C42.9425 52.8075 41.271 53.4999 39.5283 53.5H18.75V51.9336H15.6162V53.5H13.3223C9.83063 53.4999 7.00012 50.6694 7 47.1777V20.9717C7.00006 19.229 7.69251 17.5575 8.9248 16.3252L15.8525 9.39746H18.6387V8.61426H16.6357L16.8252 8.4248C18.0575 7.19251 19.729 6.50006 21.4717 6.5H36.7666V8.06641Z" fill="#29483C"/>
<rect x="53.9648" y="25.3" width="1.04341" height="1.5316" transform="rotate(90 53.9648 25.3)" fill="#4BCB95"/>
<rect x="10.9167" y="8.8501" width="1.56667" height="3.13333" transform="rotate(90 10.9167 8.8501)" fill="#4BCB95"/>
<rect x="46.95" y="51.1499" width="1.56667" height="1.56667" rx="0.783333" transform="rotate(90 46.95 51.1499)" fill="#4BCB95"/>
<rect x="42.2148" y="47.2334" width="1.04341" height="1.5316" transform="rotate(90 42.2148 47.2334)" fill="#4ACB95"/>
<rect x="28.9333" y="52.7166" width="0.783333" height="7.83333" transform="rotate(90 28.9333 52.7166)" fill="#4ACB95"/>
<path d="M7 41.75V47.1775C7 50.6693 9.83067 53.5 13.3225 53.5H15.8125M7 24.125V20.9719C7 19.2291 7.69232 17.5577 8.92467 16.3253L15.6167 9.63333M33.4375 53.5H39.5281C41.2709 53.5 42.9423 52.8077 44.1747 51.5753L50.8667 44.8833M54 32.9375V39.5344C54 40.953 53.4365 42.3135 52.4333 43.3167V43.3167M54 15.3125V12.8225C54 9.33068 51.1693 6.5 47.6775 6.5H45.1875M27.5625 6.5H21.4719C19.7291 6.5 18.0577 7.19232 16.8253 8.42467L16.7917 8.45833" stroke="url(#paint0_linear_816_20169)" stroke-width="0.783333" stroke-linecap="round" stroke-linejoin="round"/>
<g filter="url(#filter0_f_816_20169)">
<circle cx="30.1083" cy="29.6083" r="8.225" fill="#4ACB95"/>
</g>
<g opacity="0.3" filter="url(#filter1_f_816_20169)">
<circle cx="30.1083" cy="29.6083" r="8.225" fill="#4ACB95"/>
</g>
<path d="M44.001 31.829C44.2769 31.829 44.4332 32.1329 44.2381 32.328L32.828 43.7391C31.5424 45.0247 29.4575 45.0245 28.1717 43.7391L16.7606 32.328C16.5655 32.1328 16.7219 31.829 16.9978 31.829H23.0082C23.1871 31.829 23.2766 31.829 23.3608 31.8492C23.4354 31.8671 23.5068 31.8966 23.5723 31.9367C23.6461 31.982 23.7093 32.0452 23.8359 32.1717L28.9481 37.2831C29.8052 38.1402 31.1945 38.1402 32.0516 37.2831L37.1639 32.1717C37.2904 32.0452 37.3537 31.982 37.4275 31.9367C37.4929 31.8966 37.5643 31.8671 37.6389 31.8492C37.7231 31.829 37.8126 31.829 37.9915 31.829H44.001ZM28.1717 16.2616C29.4575 14.976 31.5423 14.9759 32.828 16.2616L44.2381 27.6717C44.4332 27.8668 44.2769 28.1708 44.001 28.1708H37.9906C37.8116 28.1708 37.7222 28.1708 37.638 28.1505C37.5633 28.1326 37.492 28.1031 37.4265 28.0629C37.3527 28.0177 37.2894 27.9544 37.1629 27.8279L32.0516 22.7167C31.1946 21.8598 29.8052 21.8599 28.9481 22.7167L23.8369 27.8279C23.7103 27.9544 23.6471 28.0177 23.5732 28.0629C23.5078 28.1031 23.4364 28.1326 23.3618 28.1505C23.2776 28.1708 23.1881 28.1708 23.0091 28.1708H16.9978C16.7219 28.1708 16.5655 27.8668 16.7606 27.6717L28.1717 16.2616Z" fill="#808080"/>
<g clip-path="url(#paint1_angular_816_20169_clip_path)" data-figma-skip-parse="true"><g transform="matrix(0 0.0146147 -0.0146149 0 30.4996 29.9366)"><foreignObject x="-1035.43" y="-1035.43" width="2070.85" height="2070.85"><div xmlns="http://www.w3.org/1999/xhtml" style="background:conic-gradient(from 90deg,rgba(165, 184, 255, 1) 0deg,rgba(125, 153, 255, 1) 10.3846deg,rgba(128, 155, 255, 1) 13.1572deg,rgba(229, 234, 255, 1) 35.3711deg,rgba(128, 155, 255, 1) 61.5013deg,rgba(165, 184, 255, 1) 92.3815deg,rgba(125, 153, 255, 1) 112.367deg,rgba(229, 234, 255, 1) 137.456deg,rgba(109, 138, 241, 1) 170.834deg,rgba(76, 110, 233, 1) 180.455deg,rgba(110, 138, 241, 1) 190.323deg,rgba(229, 234, 255, 1) 222.256deg,rgba(110, 138, 242, 1) 252.21deg,rgba(165, 184, 255, 1) 271.058deg,rgba(128, 155, 255, 1) 287.453deg,rgba(228, 234, 255, 1) 316.247deg,rgba(110, 138, 242, 1) 346.154deg,rgba(165, 184, 255, 1) 360deg);height:100%;width:100%;opacity:1"></div></foreignObject></g></g><path d="M44.001 31.829C44.2769 31.829 44.4332 32.1329 44.2381 32.328L32.828 43.7391C31.5424 45.0247 29.4575 45.0245 28.1717 43.7391L16.7606 32.328C16.5655 32.1328 16.7219 31.829 16.9978 31.829H23.0082C23.1871 31.829 23.2766 31.829 23.3608 31.8492C23.4354 31.8671 23.5068 31.8966 23.5723 31.9367C23.6461 31.982 23.7093 32.0452 23.8359 32.1717L28.9481 37.2831C29.8052 38.1402 31.1945 38.1402 32.0516 37.2831L37.1639 32.1717C37.2904 32.0452 37.3537 31.982 37.4275 31.9367C37.4929 31.8966 37.5643 31.8671 37.6389 31.8492C37.7231 31.829 37.8126 31.829 37.9915 31.829H44.001ZM28.1717 16.2616C29.4575 14.976 31.5423 14.9759 32.828 16.2616L44.2381 27.6717C44.4332 27.8668 44.2769 28.1708 44.001 28.1708H37.9906C37.8116 28.1708 37.7222 28.1708 37.638 28.1505C37.5633 28.1326 37.492 28.1031 37.4265 28.0629C37.3527 28.0177 37.2894 27.9544 37.1629 27.8279L32.0516 22.7167C31.1946 21.8598 29.8052 21.8599 28.9481 22.7167L23.8369 27.8279C23.7103 27.9544 23.6471 28.0177 23.5732 28.0629C23.5078 28.1031 23.4364 28.1326 23.3618 28.1505C23.2776 28.1708 23.1881 28.1708 23.0091 28.1708H16.9978C16.7219 28.1708 16.5655 27.8668 16.7606 27.6717L28.1717 16.2616Z" data-figma-gradient-fill="{&#34;type&#34;:&#34;GRADIENT_ANGULAR&#34;,&#34;stops&#34;:[{&#34;color&#34;:{&#34;r&#34;:0.64743572473526001,&#34;g&#34;:0.72408008575439453,&#34;b&#34;:1.0,&#34;a&#34;:1.0},&#34;position&#34;:0.0},{&#34;color&#34;:{&#34;r&#34;:0.49166667461395264,&#34;g&#34;:0.60217392444610596,&#34;b&#34;:1.0,&#34;a&#34;:1.0},&#34;position&#34;:0.028846153989434242},{&#34;color&#34;:{&#34;r&#34;:0.89803922176361084,&#34;g&#34;:0.91764706373214722,&#34;b&#34;:1.0,&#34;a&#34;:1.0},&#34;position&#34;:0.098252952098846436},{&#34;color&#34;:{&#34;r&#34;:0.50355130434036255,&#34;g&#34;:0.61140012741088867,&#34;b&#34;:1.0,&#34;a&#34;:1.0},&#34;position&#34;:0.17083707451820374},{&#34;color&#34;:{&#34;r&#34;:0.64743572473526001,&#34;g&#34;:0.72408008575439453,&#34;b&#34;:1.0,&#34;a&#34;:1.0},&#34;position&#34;:0.25661522150039673},{&#34;color&#34;:{&#34;r&#34;:0.49166667461395264,&#34;g&#34;:0.60217392444610596,&#34;b&#34;:1.0,&#34;a&#34;:1.0},&#34;position&#34;:0.31213030219078064},{&#34;color&#34;:{&#34;r&#34;:0.89803922176361084,&#34;g&#34;:0.91764706373214722,&#34;b&#34;:1.0,&#34;a&#34;:1.0},&#34;position&#34;:0.38182240724563599},{&#34;color&#34;:{&#34;r&#34;:0.43032929301261902,&#34;g&#34;:0.54129165410995483,&#34;b&#34;:0.94551265239715576,&#34;a&#34;:1.0},&#34;position&#34;:0.47453945875167847},{&#34;color&#34;:{&#34;r&#34;:0.29967942833900452,&#34;g&#34;:0.43380692601203918,&#34;b&#34;:0.91666644811630249,&#34;a&#34;:1.0},&#34;position&#34;:0.50126403570175171},{&#34;color&#34;:{&#34;r&#34;:0.43137255311012268,&#34;g&#34;:0.54117649793624878,&#34;b&#34;:0.94509804248809814,&#34;a&#34;:1.0},&#34;position&#34;:0.52867460250854492},{&#34;color&#34;:{&#34;r&#34;:0.89803922176361084,&#34;g&#34;:0.91764706373214722,&#34;b&#34;:1.0,&#34;a&#34;:1.0},&#34;position&#34;:0.61737865209579468},{&#34;color&#34;:{&#34;r&#34;:0.43137255311012268,&#34;g&#34;:0.54117649793624878,&#34;b&#34;:0.94901961088180542,&#34;a&#34;:1.0},&#34;position&#34;:0.70058238506317139},{&#34;color&#34;:{&#34;r&#34;:0.50355130434036255,&#34;g&#34;:0.61140012741088867,&#34;b&#34;:1.0,&#34;a&#34;:1.0},&#34;position&#34;:0.79847925901412964},{&#34;color&#34;:{&#34;r&#34;:0.43137255311012268,&#34;g&#34;:0.54117649793624878,&#34;b&#34;:0.94901961088180542,&#34;a&#34;:1.0},&#34;position&#34;:0.96153843402862549},{&#34;color&#34;:{&#34;r&#34;:0.50355130434036255,&#34;g&#34;:0.61140012741088867,&#34;b&#34;:1.0,&#34;a&#34;:1.0},&#34;position&#34;:0.036547653377056122},{&#34;color&#34;:{&#34;r&#34;:0.64743572473526001,&#34;g&#34;:0.72408008575439453,&#34;b&#34;:1.0,&#34;a&#34;:1.0},&#34;position&#34;:0.75293773412704468},{&#34;color&#34;:{&#34;r&#34;:0.89722186326980591,&#34;g&#34;:0.91956490278244019,&#34;b&#34;:1.0,&#34;a&#34;:1.0},&#34;position&#34;:0.87846505641937256}],&#34;stopsVar&#34;:[{&#34;color&#34;:{&#34;r&#34;:0.64743572473526001,&#34;g&#34;:0.72408008575439453,&#34;b&#34;:1.0,&#34;a&#34;:1.0},&#34;position&#34;:0.0},{&#34;color&#34;:{&#34;r&#34;:0.49166667461395264,&#34;g&#34;:0.60217392444610596,&#34;b&#34;:1.0,&#34;a&#34;:1.0},&#34;position&#34;:0.028846153989434242},{&#34;color&#34;:{&#34;r&#34;:0.89803922176361084,&#34;g&#34;:0.91764706373214722,&#34;b&#34;:1.0,&#34;a&#34;:1.0},&#34;position&#34;:0.098252952098846436},{&#34;color&#34;:{&#34;r&#34;:0.50355130434036255,&#34;g&#34;:0.61140012741088867,&#34;b&#34;:1.0,&#34;a&#34;:1.0},&#34;position&#34;:0.17083707451820374},{&#34;color&#34;:{&#34;r&#34;:0.64743572473526001,&#34;g&#34;:0.72408008575439453,&#34;b&#34;:1.0,&#34;a&#34;:1.0},&#34;position&#34;:0.25661522150039673},{&#34;color&#34;:{&#34;r&#34;:0.49166667461395264,&#34;g&#34;:0.60217392444610596,&#34;b&#34;:1.0,&#34;a&#34;:1.0},&#34;position&#34;:0.31213030219078064},{&#34;color&#34;:{&#34;r&#34;:0.89803922176361084,&#34;g&#34;:0.91764706373214722,&#34;b&#34;:1.0,&#34;a&#34;:1.0},&#34;position&#34;:0.38182240724563599},{&#34;color&#34;:{&#34;r&#34;:0.43032929301261902,&#34;g&#34;:0.54129165410995483,&#34;b&#34;:0.94551265239715576,&#34;a&#34;:1.0},&#34;position&#34;:0.47453945875167847},{&#34;color&#34;:{&#34;r&#34;:0.29967942833900452,&#34;g&#34;:0.43380692601203918,&#34;b&#34;:0.91666644811630249,&#34;a&#34;:1.0},&#34;position&#34;:0.50126403570175171},{&#34;color&#34;:{&#34;r&#34;:0.43137255311012268,&#34;g&#34;:0.54117649793624878,&#34;b&#34;:0.94509804248809814,&#34;a&#34;:1.0},&#34;position&#34;:0.52867460250854492},{&#34;color&#34;:{&#34;r&#34;:0.89803922176361084,&#34;g&#34;:0.91764706373214722,&#34;b&#34;:1.0,&#34;a&#34;:1.0},&#34;position&#34;:0.61737865209579468},{&#34;color&#34;:{&#34;r&#34;:0.43137255311012268,&#34;g&#34;:0.54117649793624878,&#34;b&#34;:0.94901961088180542,&#34;a&#34;:1.0},&#34;position&#34;:0.70058238506317139},{&#34;color&#34;:{&#34;r&#34;:0.50355130434036255,&#34;g&#34;:0.61140012741088867,&#34;b&#34;:1.0,&#34;a&#34;:1.0},&#34;position&#34;:0.79847925901412964},{&#34;color&#34;:{&#34;r&#34;:0.43137255311012268,&#34;g&#34;:0.54117649793624878,&#34;b&#34;:0.94901961088180542,&#34;a&#34;:1.0},&#34;position&#34;:0.96153843402862549},{&#34;color&#34;:{&#34;r&#34;:0.50355130434036255,&#34;g&#34;:0.61140012741088867,&#34;b&#34;:1.0,&#34;a&#34;:1.0},&#34;position&#34;:0.036547653377056122},{&#34;color&#34;:{&#34;r&#34;:0.64743572473526001,&#34;g&#34;:0.72408008575439453,&#34;b&#34;:1.0,&#34;a&#34;:1.0},&#34;position&#34;:0.75293773412704468},{&#34;color&#34;:{&#34;r&#34;:0.89722186326980591,&#34;g&#34;:0.91956490278244019,&#34;b&#34;:1.0,&#34;a&#34;:1.0},&#34;position&#34;:0.87846505641937256}],&#34;transform&#34;:{&#34;m00&#34;:3.1790168371001459e-13,&#34;m01&#34;:-29.229761123657227,&#34;m02&#34;:45.114482879638672,&#34;m10&#34;:29.229484558105469,&#34;m11&#34;:-6.8545001489020430e-13,&#34;m12&#34;:15.321818351745605},&#34;opacity&#34;:1.0,&#34;blendMode&#34;:&#34;NORMAL&#34;,&#34;visible&#34;:true}"/>
<g clip-path="url(#paint2_angular_816_20169_clip_path)" data-figma-skip-parse="true"><g transform="matrix(-0.0161994 0 -2.25822e-07 -0.018301 30.4994 29.8616)"><foreignObject x="-876.071" y="-876.071" width="1752.14" height="1752.14"><div xmlns="http://www.w3.org/1999/xhtml" style="background:conic-gradient(from 90deg,rgba(13, 146, 79, 1) 0deg,rgba(63, 240, 142, 1) 9.99786deg,rgba(152, 255, 205, 1) 17.7195deg,rgba(57, 224, 149, 1) 26.2733deg,rgba(57, 224, 118, 1) 27.3941deg,rgba(63, 240, 151, 1) 65.5394deg,rgba(13, 146, 61, 1) 90deg,rgba(63, 240, 189, 1) 101.495deg,rgba(153, 255, 209, 1) 110.081deg,rgba(57, 224, 157, 1) 119.613deg,rgba(63, 240, 130, 1) 154.544deg,rgba(13, 146, 88, 1) 180deg,rgba(63, 240, 163, 1) 190.042deg,rgba(153, 255, 198, 1) 197.747deg,rgba(57, 224, 157, 1) 209.555deg,rgba(63, 240, 172, 1) 245.381deg,rgba(13, 146, 79, 1) 267.643deg,rgba(63, 240, 142, 1) 279.387deg,rgba(153, 255, 198, 1) 285.952deg,rgba(57, 224, 140, 1) 300.479deg,rgba(63, 240, 154, 1) 332.684deg,rgba(13, 146, 79, 1) 360deg);height:100%;width:100%;opacity:1"></div></foreignObject></g></g><path d="M44.001 31.829C44.2769 31.829 44.4332 32.1329 44.2381 32.328L32.828 43.7391C31.5424 45.0247 29.4575 45.0245 28.1717 43.7391L16.7606 32.328C16.5655 32.1328 16.7219 31.829 16.9978 31.829H23.0082C23.1871 31.829 23.2766 31.829 23.3608 31.8492C23.4354 31.8671 23.5068 31.8966 23.5723 31.9367C23.6461 31.982 23.7093 32.0452 23.8359 32.1717L28.9481 37.2831C29.8052 38.1402 31.1945 38.1402 32.0516 37.2831L37.1639 32.1717C37.2904 32.0452 37.3537 31.982 37.4275 31.9367C37.4929 31.8966 37.5643 31.8671 37.6389 31.8492C37.7231 31.829 37.8126 31.829 37.9915 31.829H44.001ZM28.1717 16.2616C29.4575 14.976 31.5423 14.9759 32.828 16.2616L44.2381 27.6717C44.4332 27.8668 44.2769 28.1708 44.001 28.1708H37.9906C37.8116 28.1708 37.7222 28.1708 37.638 28.1505C37.5633 28.1326 37.492 28.1031 37.4265 28.0629C37.3527 28.0177 37.2894 27.9544 37.1629 27.8279L32.0516 22.7167C31.1946 21.8598 29.8052 21.8599 28.9481 22.7167L23.8369 27.8279C23.7103 27.9544 23.6471 28.0177 23.5732 28.0629C23.5078 28.1031 23.4364 28.1326 23.3618 28.1505C23.2776 28.1708 23.1881 28.1708 23.0091 28.1708H16.9978C16.7219 28.1708 16.5655 27.8668 16.7606 27.6717L28.1717 16.2616Z" data-figma-gradient-fill="{&#34;type&#34;:&#34;GRADIENT_ANGULAR&#34;,&#34;stops&#34;:[{&#34;color&#34;:{&#34;r&#34;:0.24718749523162842,&#34;g&#34;:0.94166666269302368,&#34;b&#34;:0.55970311164855957,&#34;a&#34;:1.0},&#34;position&#34;:0.027771824970841408},{&#34;color&#34;:{&#34;r&#34;:0.59935879707336426,&#34;g&#34;:1.0,&#34;b&#34;:0.80635672807693481,&#34;a&#34;:1.0},&#34;position&#34;:0.049220908433198929},{&#34;color&#34;:{&#34;r&#34;:0.22684405744075775,&#34;g&#34;:0.87889397144317627,&#34;b&#34;:0.5854715108871460,&#34;a&#34;:1.0},&#34;position&#34;:0.072981387376785278},{&#34;color&#34;:{&#34;r&#34;:0.22694893181324005,&#34;g&#34;:0.87921756505966187,&#34;b&#34;:0.46611410379409790,&#34;a&#34;:1.0},&#34;position&#34;:0.076094657182693481},{&#34;color&#34;:{&#34;r&#34;:0.24718749523162842,&#34;g&#34;:0.94166666269302368,&#34;b&#34;:0.59442710876464844,&#34;a&#34;:1.0},&#34;position&#34;:0.18205381929874420},{&#34;color&#34;:{&#34;r&#34;:0.050980392843484879,&#34;g&#34;:0.57254904508590698,&#34;b&#34;:0.24222223460674286,&#34;a&#34;:1.0},&#34;position&#34;:0.250},{&#34;color&#34;:{&#34;r&#34;:0.24718749523162842,&#34;g&#34;:0.94166666269302368,&#34;b&#34;:0.74489754438400269,&#34;a&#34;:1.0},&#34;position&#34;:0.28193169832229614},{&#34;color&#34;:{&#34;r&#34;:0.60000002384185791,&#34;g&#34;:1.0,&#34;b&#34;:0.81999999284744263,&#34;a&#34;:1.0},&#34;position&#34;:0.30577939748764038},{&#34;color&#34;:{&#34;r&#34;:0.22684405744075775,&#34;g&#34;:0.87889397144317627,&#34;b&#34;:0.61807399988174438,&#34;a&#34;:1.0},&#34;position&#34;:0.33225926756858826},{&#34;color&#34;:{&#34;r&#34;:0.24718749523162842,&#34;g&#34;:0.94166666269302368,&#34;b&#34;:0.51340448856353760,&#34;a&#34;:1.0},&#34;position&#34;:0.42928934097290039},{&#34;color&#34;:{&#34;r&#34;:0.051487360149621964,&#34;g&#34;:0.57371753454208374,&#34;b&#34;:0.34741780161857605,&#34;a&#34;:1.0},&#34;position&#34;:0.50},{&#34;color&#34;:{&#34;r&#34;:0.24718749523162842,&#34;g&#34;:0.94166666269302368,&#34;b&#34;:0.64072567224502563,&#34;a&#34;:1.0},&#34;position&#34;:0.52789402008056641},{&#34;color&#34;:{&#34;r&#34;:0.60000002384185791,&#34;g&#34;:1.0,&#34;b&#34;:0.78000003099441528,&#34;a&#34;:1.0},&#34;position&#34;:0.54929804801940918},{&#34;color&#34;:{&#34;r&#34;:0.22684405744075775,&#34;g&#34;:0.87889397144317627,&#34;b&#34;:0.61807399988174438,&#34;a&#34;:1.0},&#34;position&#34;:0.58209699392318726},{&#34;color&#34;:{&#34;r&#34;:0.24718749523162842,&#34;g&#34;:0.94166666269302368,&#34;b&#34;:0.67544966936111450,&#34;a&#34;:1.0},&#34;position&#34;:0.68161499500274658},{&#34;color&#34;:{&#34;r&#34;:0.050980392843484879,&#34;g&#34;:0.57254904508590698,&#34;b&#34;:0.31176471710205078,&#34;a&#34;:1.0},&#34;position&#34;:0.74345332384109497},{&#34;color&#34;:{&#34;r&#34;:0.24718749523162842,&#34;g&#34;:0.94166666269302368,&#34;b&#34;:0.55970311164855957,&#34;a&#34;:1.0},&#34;position&#34;:0.77607637643814087},{&#34;color&#34;:{&#34;r&#34;:0.60000002384185791,&#34;g&#34;:1.0,&#34;b&#34;:0.78000003099441528,&#34;a&#34;:1.0},&#34;position&#34;:0.79431003332138062},{&#34;color&#34;:{&#34;r&#34;:0.22684405744075775,&#34;g&#34;:0.87889397144317627,&#34;b&#34;:0.55286902189254761,&#34;a&#34;:1.0},&#34;position&#34;:0.8346639871597290},{&#34;color&#34;:{&#34;r&#34;:0.24718749523162842,&#34;g&#34;:0.94166666269302368,&#34;b&#34;:0.60600173473358154,&#34;a&#34;:1.0},&#34;position&#34;:0.92412263154983521},{&#34;color&#34;:{&#34;r&#34;:0.050980392843484879,&#34;g&#34;:0.57254904508590698,&#34;b&#34;:0.31176471710205078,&#34;a&#34;:1.0},&#34;position&#34;:1.0}],&#34;stopsVar&#34;:[{&#34;color&#34;:{&#34;r&#34;:0.24718749523162842,&#34;g&#34;:0.94166666269302368,&#34;b&#34;:0.55970311164855957,&#34;a&#34;:1.0},&#34;position&#34;:0.027771824970841408},{&#34;color&#34;:{&#34;r&#34;:0.59935879707336426,&#34;g&#34;:1.0,&#34;b&#34;:0.80635672807693481,&#34;a&#34;:1.0},&#34;position&#34;:0.049220908433198929},{&#34;color&#34;:{&#34;r&#34;:0.22684405744075775,&#34;g&#34;:0.87889397144317627,&#34;b&#34;:0.5854715108871460,&#34;a&#34;:1.0},&#34;position&#34;:0.072981387376785278},{&#34;color&#34;:{&#34;r&#34;:0.22694893181324005,&#34;g&#34;:0.87921756505966187,&#34;b&#34;:0.46611410379409790,&#34;a&#34;:1.0},&#34;position&#34;:0.076094657182693481},{&#34;color&#34;:{&#34;r&#34;:0.24718749523162842,&#34;g&#34;:0.94166666269302368,&#34;b&#34;:0.59442710876464844,&#34;a&#34;:1.0},&#34;position&#34;:0.18205381929874420},{&#34;color&#34;:{&#34;r&#34;:0.050980392843484879,&#34;g&#34;:0.57254904508590698,&#34;b&#34;:0.24222223460674286,&#34;a&#34;:1.0},&#34;position&#34;:0.250},{&#34;color&#34;:{&#34;r&#34;:0.24718749523162842,&#34;g&#34;:0.94166666269302368,&#34;b&#34;:0.74489754438400269,&#34;a&#34;:1.0},&#34;position&#34;:0.28193169832229614},{&#34;color&#34;:{&#34;r&#34;:0.60000002384185791,&#34;g&#34;:1.0,&#34;b&#34;:0.81999999284744263,&#34;a&#34;:1.0},&#34;position&#34;:0.30577939748764038},{&#34;color&#34;:{&#34;r&#34;:0.22684405744075775,&#34;g&#34;:0.87889397144317627,&#34;b&#34;:0.61807399988174438,&#34;a&#34;:1.0},&#34;position&#34;:0.33225926756858826},{&#34;color&#34;:{&#34;r&#34;:0.24718749523162842,&#34;g&#34;:0.94166666269302368,&#34;b&#34;:0.51340448856353760,&#34;a&#34;:1.0},&#34;position&#34;:0.42928934097290039},{&#34;color&#34;:{&#34;r&#34;:0.051487360149621964,&#34;g&#34;:0.57371753454208374,&#34;b&#34;:0.34741780161857605,&#34;a&#34;:1.0},&#34;position&#34;:0.50},{&#34;color&#34;:{&#34;r&#34;:0.24718749523162842,&#34;g&#34;:0.94166666269302368,&#34;b&#34;:0.64072567224502563,&#34;a&#34;:1.0},&#34;position&#34;:0.52789402008056641},{&#34;color&#34;:{&#34;r&#34;:0.60000002384185791,&#34;g&#34;:1.0,&#34;b&#34;:0.78000003099441528,&#34;a&#34;:1.0},&#34;position&#34;:0.54929804801940918},{&#34;color&#34;:{&#34;r&#34;:0.22684405744075775,&#34;g&#34;:0.87889397144317627,&#34;b&#34;:0.61807399988174438,&#34;a&#34;:1.0},&#34;position&#34;:0.58209699392318726},{&#34;color&#34;:{&#34;r&#34;:0.24718749523162842,&#34;g&#34;:0.94166666269302368,&#34;b&#34;:0.67544966936111450,&#34;a&#34;:1.0},&#34;position&#34;:0.68161499500274658},{&#34;color&#34;:{&#34;r&#34;:0.050980392843484879,&#34;g&#34;:0.57254904508590698,&#34;b&#34;:0.31176471710205078,&#34;a&#34;:1.0},&#34;position&#34;:0.74345332384109497},{&#34;color&#34;:{&#34;r&#34;:0.24718749523162842,&#34;g&#34;:0.94166666269302368,&#34;b&#34;:0.55970311164855957,&#34;a&#34;:1.0},&#34;position&#34;:0.77607637643814087},{&#34;color&#34;:{&#34;r&#34;:0.60000002384185791,&#34;g&#34;:1.0,&#34;b&#34;:0.78000003099441528,&#34;a&#34;:1.0},&#34;position&#34;:0.79431003332138062},{&#34;color&#34;:{&#34;r&#34;:0.22684405744075775,&#34;g&#34;:0.87889397144317627,&#34;b&#34;:0.55286902189254761,&#34;a&#34;:1.0},&#34;position&#34;:0.8346639871597290},{&#34;color&#34;:{&#34;r&#34;:0.24718749523162842,&#34;g&#34;:0.94166666269302368,&#34;b&#34;:0.60600173473358154,&#34;a&#34;:1.0},&#34;position&#34;:0.92412263154983521},{&#34;color&#34;:{&#34;r&#34;:0.050980392843484879,&#34;g&#34;:0.57254904508590698,&#34;b&#34;:0.31176471710205078,&#34;a&#34;:1.0},&#34;position&#34;:1.0}],&#34;transform&#34;:{&#34;m00&#34;:-32.398735046386719,&#34;m01&#34;:-0.00045164383482187986,&#34;m02&#34;:46.698951721191406,&#34;m10&#34;:-7.8560151006018542e-14,&#34;m11&#34;:-36.602024078369141,&#34;m12&#34;:48.162631988525391},&#34;opacity&#34;:1.0,&#34;blendMode&#34;:&#34;NORMAL&#34;,&#34;visible&#34;:true}"/>
<rect x="24.9434" y="30.0002" width="7.85759" height="7.85759" rx="1.46322" transform="rotate(-45 24.9434 30.0002)" fill="#808080"/>
<g clip-path="url(#paint3_angular_816_20169_clip_path)" data-figma-skip-parse="true"><g transform="matrix(0.000901969 0.00417715 -0.00417715 0.000901969 30.4873 29.9881)"><foreignObject x="-1392.59" y="-1392.59" width="2785.18" height="2785.18"><div xmlns="http://www.w3.org/1999/xhtml" style="background:conic-gradient(from 90deg,rgba(110, 164, 244, 1) 0deg,rgba(125, 153, 255, 1) 105.186deg,rgba(228, 234, 255, 1) 190.218deg,rgba(59, 117, 203, 1) 253.909deg,rgba(110, 164, 244, 1) 360deg);height:100%;width:100%;opacity:1"></div></foreignObject></g></g><rect x="24.9434" y="30.0002" width="7.85759" height="7.85759" rx="1.46322" transform="rotate(-45 24.9434 30.0002)" data-figma-gradient-fill="{&#34;type&#34;:&#34;GRADIENT_ANGULAR&#34;,&#34;stops&#34;:[{&#34;color&#34;:{&#34;r&#34;:0.49166667461395264,&#34;g&#34;:0.60217392444610596,&#34;b&#34;:1.0,&#34;a&#34;:1.0},&#34;position&#34;:0.29218411445617676},{&#34;color&#34;:{&#34;r&#34;:0.89722186326980591,&#34;g&#34;:0.91956490278244019,&#34;b&#34;:1.0,&#34;a&#34;:1.0},&#34;position&#34;:0.52838248014450073},{&#34;color&#34;:{&#34;r&#34;:0.23137255012989044,&#34;g&#34;:0.45882353186607361,&#34;b&#34;:0.79607844352722168,&#34;a&#34;:1.0},&#34;position&#34;:0.70530170202255249},{&#34;color&#34;:{&#34;r&#34;:0.43137255311012268,&#34;g&#34;:0.64313727617263794,&#34;b&#34;:0.95686274766921997,&#34;a&#34;:1.0},&#34;position&#34;:1.0}],&#34;stopsVar&#34;:[{&#34;color&#34;:{&#34;r&#34;:0.49166667461395264,&#34;g&#34;:0.60217392444610596,&#34;b&#34;:1.0,&#34;a&#34;:1.0},&#34;position&#34;:0.29218411445617676},{&#34;color&#34;:{&#34;r&#34;:0.89722186326980591,&#34;g&#34;:0.91956490278244019,&#34;b&#34;:1.0,&#34;a&#34;:1.0},&#34;position&#34;:0.52838248014450073},{&#34;color&#34;:{&#34;r&#34;:0.23137255012989044,&#34;g&#34;:0.45882353186607361,&#34;b&#34;:0.79607844352722168,&#34;a&#34;:1.0},&#34;position&#34;:0.70530170202255249},{&#34;color&#34;:{&#34;r&#34;:0.43137255311012268,&#34;g&#34;:0.64313727617263794,&#34;b&#34;:0.95686274766921997,&#34;a&#34;:1.0},&#34;position&#34;:1.0}],&#34;transform&#34;:{&#34;m00&#34;:1.8039388656616211,&#34;m01&#34;:-8.3542995452880859,&#34;m02&#34;:33.762527465820312,&#34;m10&#34;:8.3542995452880859,&#34;m11&#34;:1.8039388656616211,&#34;m12&#34;:24.908958435058594},&#34;opacity&#34;:1.0,&#34;blendMode&#34;:&#34;NORMAL&#34;,&#34;visible&#34;:true}"/>
<g clip-path="url(#paint4_angular_816_20169_clip_path)" data-figma-skip-parse="true"><g transform="matrix(0 0.00584304 -0.00620736 0 30.4733 29.974)"><foreignObject x="-1043.93" y="-1043.93" width="2087.85" height="2087.85"><div xmlns="http://www.w3.org/1999/xhtml" style="background:conic-gradient(from 90deg,rgba(16, 95, 26, 1) 0deg,rgba(63, 240, 181, 1) 100.8deg,rgba(226, 255, 246, 1) 149.4deg,rgba(63, 240, 163, 1) 240.742deg,rgba(16, 95, 26, 1) 360deg);height:100%;width:100%;opacity:1"></div></foreignObject></g></g><rect x="24.9434" y="30.0002" width="7.85759" height="7.85759" rx="1.46322" transform="rotate(-45 24.9434 30.0002)" data-figma-gradient-fill="{&#34;type&#34;:&#34;GRADIENT_ANGULAR&#34;,&#34;stops&#34;:[{&#34;color&#34;:{&#34;r&#34;:0.24718749523162842,&#34;g&#34;:0.94166666269302368,&#34;b&#34;:0.71017360687255859,&#34;a&#34;:1.0},&#34;position&#34;:0.28000000119209290},{&#34;color&#34;:{&#34;r&#34;:0.88888853788375854,&#34;g&#34;:1.0,&#34;b&#34;:0.9666665792465210,&#34;a&#34;:1.0},&#34;position&#34;:0.41499999165534973},{&#34;color&#34;:{&#34;r&#34;:0.24718749523162842,&#34;g&#34;:0.94166666269302368,&#34;b&#34;:0.64072567224502563,&#34;a&#34;:1.0},&#34;position&#34;:0.66872805356979370},{&#34;color&#34;:{&#34;r&#34;:0.063541606068611145,&#34;g&#34;:0.3750,&#34;b&#34;:0.10506939142942429,&#34;a&#34;:1.0},&#34;position&#34;:1.0}],&#34;stopsVar&#34;:[{&#34;color&#34;:{&#34;r&#34;:0.24718749523162842,&#34;g&#34;:0.94166666269302368,&#34;b&#34;:0.71017360687255859,&#34;a&#34;:1.0},&#34;position&#34;:0.28000000119209290},{&#34;color&#34;:{&#34;r&#34;:0.88888853788375854,&#34;g&#34;:1.0,&#34;b&#34;:0.9666665792465210,&#34;a&#34;:1.0},&#34;position&#34;:0.41499999165534973},{&#34;color&#34;:{&#34;r&#34;:0.24718749523162842,&#34;g&#34;:0.94166666269302368,&#34;b&#34;:0.64072567224502563,&#34;a&#34;:1.0},&#34;position&#34;:0.66872805356979370},{&#34;color&#34;:{&#34;r&#34;:0.063541606068611145,&#34;g&#34;:0.3750,&#34;b&#34;:0.10506939142942429,&#34;a&#34;:1.0},&#34;position&#34;:1.0}],&#34;transform&#34;:{&#34;m00&#34;:0.0,&#34;m01&#34;:-12.414720535278320,&#34;m02&#34;:36.680652618408203,&#34;m10&#34;:11.686073303222656,&#34;m11&#34;:0.0,&#34;m12&#34;:24.130989074707031},&#34;opacity&#34;:1.0,&#34;blendMode&#34;:&#34;NORMAL&#34;,&#34;visible&#34;:true}"/>
<circle cx="15.6166" cy="30.7833" r="0.783333" fill="#4ACB95"/>
<circle cx="0.391667" cy="0.391667" r="0.391667" transform="matrix(1 0 0 -1 23.45 18.25)" fill="#4ACB95"/>
<circle cx="0.391667" cy="0.391667" r="0.391667" transform="matrix(1 0 0 -1 47.7334 34.7)" fill="#4ACB95"/>
<circle cx="12.8751" cy="42.9251" r="0.391667" fill="#4ACB95"/>
<circle cx="35.9772" cy="13.5512" r="0.783333" fill="#4ACB95"/>
<defs>
<filter id="filter0_f_816_20169" x="0.498302" y="-0.00169754" width="59.2199" height="59.2199" filterUnits="userSpaceOnUse" color-interpolation-filters="sRGB">
<feFlood flood-opacity="0" result="BackgroundImageFix"/>
<feBlend mode="normal" in="SourceGraphic" in2="BackgroundImageFix" result="shape"/>
<feGaussianBlur stdDeviation="10.6925" result="effect1_foregroundBlur_816_20169"/>
</filter>
<filter id="filter1_f_816_20169" x="0.498302" y="-0.00169754" width="59.2199" height="59.2199" filterUnits="userSpaceOnUse" color-interpolation-filters="sRGB">
<feFlood flood-opacity="0" result="BackgroundImageFix"/>
<feBlend mode="normal" in="SourceGraphic" in2="BackgroundImageFix" result="shape"/>
<feGaussianBlur stdDeviation="10.6925" result="effect1_foregroundBlur_816_20169"/>
</filter>
<clipPath id="paint1_angular_816_20169_clip_path"><path d="M44.001 31.829C44.2769 31.829 44.4332 32.1329 44.2381 32.328L32.828 43.7391C31.5424 45.0247 29.4575 45.0245 28.1717 43.7391L16.7606 32.328C16.5655 32.1328 16.7219 31.829 16.9978 31.829H23.0082C23.1871 31.829 23.2766 31.829 23.3608 31.8492C23.4354 31.8671 23.5068 31.8966 23.5723 31.9367C23.6461 31.982 23.7093 32.0452 23.8359 32.1717L28.9481 37.2831C29.8052 38.1402 31.1945 38.1402 32.0516 37.2831L37.1639 32.1717C37.2904 32.0452 37.3537 31.982 37.4275 31.9367C37.4929 31.8966 37.5643 31.8671 37.6389 31.8492C37.7231 31.829 37.8126 31.829 37.9915 31.829H44.001ZM28.1717 16.2616C29.4575 14.976 31.5423 14.9759 32.828 16.2616L44.2381 27.6717C44.4332 27.8668 44.2769 28.1708 44.001 28.1708H37.9906C37.8116 28.1708 37.7222 28.1708 37.638 28.1505C37.5633 28.1326 37.492 28.1031 37.4265 28.0629C37.3527 28.0177 37.2894 27.9544 37.1629 27.8279L32.0516 22.7167C31.1946 21.8598 29.8052 21.8599 28.9481 22.7167L23.8369 27.8279C23.7103 27.9544 23.6471 28.0177 23.5732 28.0629C23.5078 28.1031 23.4364 28.1326 23.3618 28.1505C23.2776 28.1708 23.1881 28.1708 23.0091 28.1708H16.9978C16.7219 28.1708 16.5655 27.8668 16.7606 27.6717L28.1717 16.2616Z"/></clipPath><clipPath id="paint2_angular_816_20169_clip_path"><path d="M44.001 31.829C44.2769 31.829 44.4332 32.1329 44.2381 32.328L32.828 43.7391C31.5424 45.0247 29.4575 45.0245 28.1717 43.7391L16.7606 32.328C16.5655 32.1328 16.7219 31.829 16.9978 31.829H23.0082C23.1871 31.829 23.2766 31.829 23.3608 31.8492C23.4354 31.8671 23.5068 31.8966 23.5723 31.9367C23.6461 31.982 23.7093 32.0452 23.8359 32.1717L28.9481 37.2831C29.8052 38.1402 31.1945 38.1402 32.0516 37.2831L37.1639 32.1717C37.2904 32.0452 37.3537 31.982 37.4275 31.9367C37.4929 31.8966 37.5643 31.8671 37.6389 31.8492C37.7231 31.829 37.8126 31.829 37.9915 31.829H44.001ZM28.1717 16.2616C29.4575 14.976 31.5423 14.9759 32.828 16.2616L44.2381 27.6717C44.4332 27.8668 44.2769 28.1708 44.001 28.1708H37.9906C37.8116 28.1708 37.7222 28.1708 37.638 28.1505C37.5633 28.1326 37.492 28.1031 37.4265 28.0629C37.3527 28.0177 37.2894 27.9544 37.1629 27.8279L32.0516 22.7167C31.1946 21.8598 29.8052 21.8599 28.9481 22.7167L23.8369 27.8279C23.7103 27.9544 23.6471 28.0177 23.5732 28.0629C23.5078 28.1031 23.4364 28.1326 23.3618 28.1505C23.2776 28.1708 23.1881 28.1708 23.0091 28.1708H16.9978C16.7219 28.1708 16.5655 27.8668 16.7606 27.6717L28.1717 16.2616Z"/></clipPath><clipPath id="paint3_angular_816_20169_clip_path"><rect x="24.9434" y="30.0002" width="7.85759" height="7.85759" rx="1.46322" transform="rotate(-45 24.9434 30.0002)"/></clipPath><clipPath id="paint4_angular_816_20169_clip_path"><rect x="24.9434" y="30.0002" width="7.85759" height="7.85759" rx="1.46322" transform="rotate(-45 24.9434 30.0002)"/></clipPath><linearGradient id="paint0_linear_816_20169" x1="30.5" y1="6.5" x2="30.5" y2="53.5" gradientUnits="userSpaceOnUse">
<stop stop-color="#4ACB95"/>
<stop offset="1" stop-color="#4ACB95"/>
</linearGradient>
</defs>
</svg>
