<svg xmlns="http://www.w3.org/2000/svg" width="138" height="46" viewBox="0 0 138 46" fill="none">
    <path d="M37.0481 26.1449C33.2667 37.2516 22.6997 39.3507 13.8083 37.7913C11.6183 37.4074 5.13223 35.3804 3.39704 29.8272C3.24145 29.3352 2.2841 26.0968 3.88768 22.9543C6.40073 18.0366 13.0663 17.5209 16.7761 17.233C22.2689 16.8012 26.0385 18.5164 26.8044 18.8762C28.1806 19.5239 29.1021 20.2076 29.7124 20.6154C28.7071 19.5839 24.5786 14.6062 15.4478 14.3544C7.31023 14.1145 1.97296 18.8043 0.907898 19.7758C4.68946 8.68103 15.2563 6.57001 24.1477 8.12928C26.3378 8.5131 32.8238 10.5401 34.559 16.0935C34.7147 16.5853 35.672 19.8238 34.0684 22.9663C31.5552 27.8839 24.8897 28.3999 21.1799 28.6996C15.6751 29.1315 11.9175 27.4162 11.1516 27.0564C9.76344 26.3848 8.84198 25.713 8.23169 25.3052C9.22493 26.3368 13.3655 31.3145 22.4843 31.5662C30.6457 31.8062 35.983 27.1165 37.0481 26.1449Z" fill="#BCE929"/>
    <path d="M63.1407 18.5372C62.4052 17.2926 61.381 16.3128 60.12 15.6243C58.8331 14.9358 57.4147 14.5916 55.8387 14.5916C54.184 14.5916 52.7133 14.9623 51.4 15.6773C50.0867 16.3922 49.0622 17.3985 48.3267 18.6696C47.5912 19.9406 47.2237 21.3706 47.2237 22.9859C47.2237 24.6012 47.6175 26.0576 48.3793 27.3022C49.1409 28.5733 50.2178 29.5531 51.5837 30.2945C52.9757 31.0095 54.5781 31.3803 56.4165 31.3803C57.8875 31.3803 59.1745 31.1419 60.3041 30.6916C61.4334 30.2416 62.3528 29.5794 63.0883 28.7323L60.6191 26.0311C60.0677 26.5608 59.4898 26.958 58.8331 27.2227C58.1765 27.4875 57.4411 27.6201 56.6005 27.6201C55.6023 27.6201 54.7618 27.4346 54.079 27.0903C53.3698 26.7461 52.8183 26.2166 52.4242 25.5545C52.2142 25.1838 52.0302 24.7866 51.9515 24.3364H64.1913C64.2176 24.1245 64.2176 23.9127 64.2439 23.6744C64.2703 23.436 64.2703 23.2242 64.2703 23.0388C64.244 21.2911 63.8762 19.7817 63.1407 18.5372ZM51.8728 21.5824C51.9515 21.0793 52.1092 20.6026 52.3192 20.2054C52.6606 19.5699 53.1334 19.0668 53.7376 18.7225C54.3417 18.3783 55.0508 18.1929 55.865 18.1929C56.6529 18.1929 57.3623 18.3783 57.9662 18.7225C58.5704 19.0668 59.0431 19.5699 59.3848 20.2054C59.6212 20.6291 59.7526 21.0793 59.8313 21.6089H51.8728V21.5824Z" fill="white"/>
    <path d="M82.0835 18.5372C81.3482 17.2926 80.3237 16.3128 79.0631 15.6243C77.7761 14.9358 76.3575 14.5916 74.7554 14.5916C73.1007 14.5916 71.6297 14.9623 70.3164 15.6773C69.0031 16.3922 67.9789 17.3985 67.2434 18.6696C66.5079 19.9406 66.1401 21.397 66.1401 23.0124C66.1401 24.6277 66.5079 26.0842 67.2958 27.3288C68.0576 28.5997 69.1345 29.5795 70.5265 30.3211C71.9188 31.0359 73.5208 31.4067 75.3596 31.4067C76.8305 31.4067 78.1175 31.1685 79.2468 30.7182C80.3764 30.2682 81.2956 29.606 82.0311 28.7586L79.5358 26.0311C78.9841 26.5608 78.4063 26.958 77.7498 27.2227C77.093 27.4875 76.3575 27.6201 75.5172 27.6201C74.5454 27.6201 73.6785 27.4346 72.9957 27.0903C72.2865 26.7461 71.7348 26.2166 71.341 25.5545C71.1306 25.1838 70.9732 24.7866 70.8679 24.3364H83.108C83.1343 24.1245 83.1604 23.9127 83.1604 23.6744C83.1867 23.436 83.1867 23.2242 83.1867 23.0388C83.1867 21.2911 82.819 19.7817 82.0835 18.5372ZM70.7892 21.5824C70.8679 21.0793 71.0256 20.6026 71.2357 20.2054C71.5773 19.5699 72.0501 19.0668 72.6543 18.7225C73.2581 18.3783 73.9675 18.1929 74.7817 18.1929C75.5959 18.1929 76.2788 18.3783 76.8829 18.7225C77.4871 19.0668 77.9598 19.5699 78.3013 20.2054C78.5377 20.6291 78.669 21.0793 78.7477 21.6089H70.7892V21.5824Z" fill="white"/>
    <path d="M91.7477 31.4067C90.3585 31.4067 89.0477 31.2477 87.7894 30.9035C86.531 30.5592 85.5086 30.1621 84.7485 29.6326L86.2688 26.2695C87.0291 26.7195 87.9205 27.0903 88.9166 27.3817C89.9389 27.673 90.935 27.8317 91.9051 27.8317C92.98 27.8317 93.74 27.6993 94.212 27.4346C94.6577 27.1698 94.8936 26.799 94.8936 26.349C94.8936 25.9782 94.7101 25.6868 94.3692 25.475C94.0285 25.2897 93.5565 25.1308 92.98 25.0249C92.4032 24.919 91.774 24.8131 91.0661 24.7336C90.3585 24.6277 89.6769 24.4953 88.969 24.3099C88.2875 24.1245 87.632 23.8597 87.0554 23.542C86.4523 23.1977 86.0066 22.7476 85.6397 22.165C85.299 21.5824 85.1155 20.8145 85.1155 19.8877C85.1155 18.8549 85.4038 17.9546 86.0066 17.1337C86.6097 16.3393 87.4485 15.7037 88.5497 15.28C89.6769 14.8034 91.0137 14.5916 92.5867 14.5916C93.7139 14.5916 94.8412 14.724 95.9684 14.9623C97.0957 15.2271 98.0655 15.5713 98.8258 16.0215L97.2268 19.3845C96.4665 18.9344 95.6799 18.6166 94.8936 18.4312C94.1072 18.2459 93.347 18.1664 92.6391 18.1664C91.5642 18.1664 90.7779 18.2988 90.3061 18.5901C89.8341 18.8814 89.5982 19.2256 89.5982 19.6758C89.5982 20.073 89.7817 20.3908 90.1487 20.6026C90.5157 20.8145 90.9877 20.9734 91.5642 21.0793C92.141 21.1852 92.7965 21.2911 93.4781 21.3706C94.1857 21.4765 94.8673 21.6089 95.5491 21.7943C96.2306 21.9796 96.8598 22.2444 97.4627 22.5622C98.0655 22.9064 98.5112 23.3566 98.8782 23.9392C99.2191 24.5218 99.4026 25.2897 99.4026 26.2166C99.4026 27.1964 99.1141 28.0967 98.5112 28.8647C97.9084 29.6326 97.0433 30.2679 95.9161 30.6916C94.7364 31.1685 93.347 31.4067 91.7477 31.4067Z" fill="white"/>
    <path d="M117.039 18.5372C116.303 17.2926 115.277 16.3128 114.014 15.6243C112.725 14.9358 111.305 14.5916 109.7 14.5916C108.043 14.5916 106.57 14.9623 105.255 15.6773C103.94 16.3922 102.914 17.3985 102.177 18.6696C101.441 19.9406 101.073 21.397 101.073 23.0124C101.073 24.6277 101.441 26.0842 102.204 27.3288C102.967 28.5997 104.045 29.5795 105.439 30.3211C106.833 31.0359 108.438 31.4067 110.279 31.4067C111.752 31.4067 113.041 31.1685 114.172 30.7182C115.303 30.2682 116.224 29.606 116.961 28.7586L114.461 26.0311C113.909 26.5608 113.33 26.958 112.673 27.2227C112.015 27.4875 111.279 27.6201 110.437 27.6201C109.464 27.6201 108.622 27.4346 107.912 27.0903C107.202 26.7461 106.649 26.2166 106.255 25.5545C106.044 25.1838 105.886 24.7866 105.781 24.3364H118.039C118.065 24.1245 118.065 23.9127 118.092 23.6744C118.118 23.436 118.118 23.2242 118.118 23.0388C118.144 21.2911 117.776 19.7817 117.039 18.5372ZM105.728 21.5824C105.807 21.0793 105.965 20.6026 106.176 20.2054C106.517 19.5699 106.991 19.0668 107.596 18.7225C108.201 18.3783 108.911 18.1929 109.727 18.1929C110.542 18.1929 111.226 18.3783 111.831 18.7225C112.436 19.0668 112.91 19.5699 113.252 20.2054C113.488 20.6291 113.62 21.0793 113.699 21.6089H105.728V21.5824Z" fill="white"/>
    <path d="M135.933 18.5372C135.199 17.2926 134.176 16.3128 132.917 15.6243C131.658 14.9358 130.242 14.5916 128.642 14.5916C126.99 14.5916 125.521 14.9623 124.21 15.6773C122.899 16.3922 121.876 17.3985 121.142 18.6696C120.407 19.9406 120.04 21.397 120.04 23.0124C120.04 24.6277 120.434 26.0842 121.194 27.3288C121.955 28.5997 123.03 29.5795 124.42 30.3211C125.81 31.0359 127.41 31.4067 129.246 31.4067C130.714 31.4067 131.999 31.1685 133.127 30.7182C134.254 30.2682 135.172 29.606 135.933 28.7586L133.441 26.0311C132.891 26.5608 132.314 26.958 131.658 27.2227C131.002 27.4875 130.268 27.6201 129.429 27.6201C128.459 27.6201 127.593 27.4346 126.911 27.0903C126.203 26.7461 125.653 26.2166 125.259 25.5545C125.049 25.1838 124.866 24.7866 124.787 24.3364H137.008C137.034 24.1245 137.034 23.9127 137.061 23.6744C137.087 23.436 137.087 23.2242 137.087 23.0388C137.061 21.2911 136.693 19.7817 135.933 18.5372ZM124.682 21.5824C124.761 21.0793 124.918 20.6026 125.128 20.2054C125.469 19.5699 125.941 19.0668 126.544 18.7225C127.147 18.3783 127.856 18.1929 128.668 18.1929C129.455 18.1929 130.163 18.3783 130.767 18.7225C131.37 19.0668 131.842 19.5699 132.183 20.2054C132.419 20.6291 132.55 21.0793 132.629 21.6089H124.682V21.5824Z" fill="white"/>
</svg>